<?xml version="1.0" encoding="UTF-8" standalone="no"?>
<svg
   viewBox="0 0 1170 1000"
   font-family="'Roboto Condensed','Arial Narrow',sans-serif"
   version="1.1"
   id="svg47"
   sodipodi:docname="CRAM_robot_colorblind_2.svg"
   inkscape:version="1.4.4 (1:1.4.4+202605061436+dcaf3e7d9e)"
   xmlns:inkscape="http://www.inkscape.org/namespaces/inkscape"
   xmlns:sodipodi="http://sodipodi.sourceforge.net/DTD/sodipodi-0.dtd"
   xmlns="http://www.w3.org/2000/svg"
   xmlns:svg="http://www.w3.org/2000/svg">
  <sodipodi:namedview
     id="namedview47"
     pagecolor="#ffffff"
     bordercolor="#000000"
     borderopacity="0.25"
     inkscape:showpageshadow="2"
     inkscape:pageopacity="0.0"
     inkscape:pagecheckerboard="0"
     inkscape:deskcolor="#d1d1d1"
     inkscape:zoom="0.80300001"
     inkscape:cx="489.41469"
     inkscape:cy="440.22415"
     inkscape:window-width="1854"
     inkscape:window-height="1011"
     inkscape:window-x="1986"
     inkscape:window-y="32"
     inkscape:window-maximized="1"
     inkscape:current-layer="svg47" />
  <defs
     id="defs1">
    <path
       id="tp_reason"
       d="M234.53,845.47 A432,432 0 0 1 234.53,234.53"
       fill="none" />
    <path
       id="tp_jpt"
       d="M245.79,824.12 A409,409 0 0 1 131.06,547.14"
       fill="none" />
    <path
       id="tp_jpt2"
       d="M258.74,811.61 A391,391 0 0 1 149.06,546.82"
       fill="none" />
    <path
       id="tp_rdr"
       d="M131.06,532.86 A409,409 0 0 1 245.79,255.88"
       fill="none" />
    <path
       id="tp_rdr2"
       d="M149.06,533.18 A391,391 0 0 1 258.74,268.39"
       fill="none" />
    <path
       id="tp_neems"
       d="M261.06,240.88 A409,409 0 0 1 818.94,240.88"
       fill="none" />
    <path
       id="tp_neems2"
       d="M273.34,254.04 A391,391 0 0 1 806.66,254.04"
       fill="none" />
    <path
       id="tp_cls"
       d="M839.12,818.94 A409,409 0 0 0 839.12,261.06"
       fill="none" />
    <path
       id="tp_cls2"
       d="M825.96,806.66 A391,391 0 0 0 825.96,273.34"
       fill="none" />
    <path
       id="tp_nl"
       d="M256.45,823.55 A401,401 0 0 0 823.55,823.55"
       fill="none" />
    <path
       id="tp_eql"
       d="M234.75,518.65 A306,306 0 0 1 845.25,518.65"
       fill="none" />
    <path
       id="tp_eql2"
       d="M250.71,519.77 A290,290 0 0 1 829.29,519.77"
       fill="none" />
    <path
       id="tp_semdt1"
       d="M333.81,452.48 A224.00,224.00 0 0 0 512.70,762.33"
       fill="none" />
    <path
       id="tp_segmind1"
       d="M437.86,330.58 A233.00,233.00 0 0 1 663.47,342.40"
       fill="none" />
    <path
       id="tp_segmind2"
       d="M428.75,354.85 A216.00,216.00 0 0 1 669.99,367.49"
       fill="none" />
    <path
       id="tpB_pyc1"
       d="M682.22,722.03 A231.00,231.00 0 0 0 731.51,410.83"
       fill="none" />
    <path
       id="tpB_pyc2"
       d="M687.27,692.50 A212.00,212.00 0 0 0 727.18,440.47"
       fill="none" />
    <path
       id="tp_mv1"
       d="M397.34,493.65 A150.00,150.00 0 0 0 508.81,686.72"
       fill="none" />
    <path
       id="tp_mv2"
       d="M411.38,510.31 A132.00,132.00 0 0 0 501.41,666.23"
       fill="none" />
    <path
       id="tpB_robo1"
       d="M449.13,419.41 A151.00,151.00 0 0 1 630.87,419.41"
       fill="none" />
    <path
       id="tpB_robo2"
       d="M453.87,437.35 A134.00,134.00 0 0 1 626.13,437.35"
       fill="none" />
    <path
       id="tpB_gis1"
       d="M610.89,673.33 A151.00,151.00 0 0 0 680.00,483.43"
       fill="none" />
    <path
       id="tpB_gis2"
       d="M614.93,651.09 A134.00,134.00 0 0 0 668.81,503.06"
       fill="none" />
    <path
       id="tp_semdt1-6"
       d="M 333.81,452.48 A 224,224 0 0 0 512.7,762.33"
       fill="none" />
    <path
       id="tp_rdr-6"
       d="M 131.06,532.86 A 409,409 0 0 1 245.79,255.88"
       fill="none" />
  </defs>
  <text
     x="44"
     y="52"
     font-size="24"
     font-weight="700"
     fill="#163253"
     id="text1"
     style="fill:#1d1d1b;fill-opacity:1">CRAM High-Level System Implementation Overview</text>
  <text
     x="44"
     y="77"
     font-size="13.5px"
     fill="#a1c8ed"
     id="text2" />
  <!-- ===== EQL FULL RING ===== -->
  <path
     d="M787.49,787.49 A350.00,350.00 0 0 1 303.35,797.87 A15.00,15.00 0 0 0 282.13,776.65 A350.00,350.00 0 0 1 210.17,422.91 A15.00,15.00 0 0 0 221.40,395.11 A350.00,350.00 0 0 1 395.11,221.40 A15.00,15.00 0 0 0 422.91,210.17 A350.00,350.00 0 0 1 776.65,282.13 A15.00,15.00 0 0 0 797.87,303.35 A350.00,350.00 0 0 1 797.87,776.65 A15.00,15.00 0 0 0 776.65,797.87 A350.00,350.00 0 0 1 787.49,787.48 Z M802.00,540.00 A262,262 0 0 0 554.99,278.43 A15,15 0 0 0 525.01,278.43 A262,262 0 0 0 305.98,657.80 A15,15 0 0 0 320.97,683.77 A262,262 0 0 0 759.03,683.77 A15,15 0 0 0 774.02,657.80 A262,262 0 0 0 802.00,540.00 Z"
     fill="#9f472f"
     stroke="#163253"
     stroke-width="2.5"
     fill-rule="evenodd"
     id="path2"
     style="fill:#2f699f;fill-opacity:1" />
  <!-- ===== OUTER RIM (full circle, even quadrants) ===== -->
  <!-- Reasoning (left) -->
  <path
     d="M220.39,859.61 A452,452 0 0 1 220.39,220.39 L245.84,245.84 A15,15 0 0 0 267.06,267.06 L292.51,292.51 A350,350 0 0 0 223.98,389.57 A15,15 0 0 1 212.26,417.17 A350,350 0 0 0 212.26,662.83 A15,15 0 0 1 223.98,690.43 A350,350 0 0 0 292.51,787.49 L220.39,859.61 Z"
     fill="#a1c8ed"
     stroke="#163253"
     stroke-width="2.5"
     id="path3"
     style="fill:#95c0ea;fill-opacity:1"
     transform="rotate(45 540 540)" />
  <path
     d="M 190,540 H 89.05604"
     stroke="#163253"
     stroke-width="1.62511"
     id="path4"
     transform="rotate(45 540 540)" />
  <!-- NEEMs (top) -->
  <path
     d="M220.39,220.39 A452,452 0 0 1 859.61,220.39 L834.16,245.84 A15,15 0 0 1 812.94,267.06 L787.49,292.51 A350,350 0 0 0 555.00,190.32 A15,15 0 0 1 525.00,190.32 A350,350 0 0 0 292.51,292.51 L267.06,267.06 A15,15 0 0 1 245.84,245.84 L220.39,220.39 Z"
     fill="#a1c8ed"
     stroke="#163253"
     stroke-width="2.5"
     id="path5"
     style="fill:#95c0ea;fill-opacity:1"
     transform="rotate(45 540 540)" />
  <!-- Class Diagrams (right) -->
  <path
     d="M859.61,220.39 A452,452 0 0 1 859.61,859.61 L787.49,787.49 A350,350 0 0 0 889.68,555.00 A15,15 0 0 1 889.68,525.00 A350,350 0 0 0 787.49,292.51 L812.94,267.06 A15,15 0 0 0 834.16,245.84 L859.61,220.39 Z"
     fill="#a1c8ed"
     stroke="#163253"
     stroke-width="2.5"
     id="path6"
     style="fill:#95c0ea;fill-opacity:1"
     transform="rotate(45 540 540)" />
  <!-- Natural Language (bottom, external) -->
  <path
     d="M859.61,859.61 A452,452 0 0 1 220.39,859.61 L292.51,787.49 A350,350 0 0 0 525.00,889.68 A15,15 0 0 1 555.00,889.68 A350,350 0 0 0 787.49,787.49 L859.61,859.61 Z"
     fill="#a1c8ed"
     stroke="#163253"
     stroke-width="2"
     stroke-dasharray="6,3"
     id="path7"
     style="fill:#fcf3e2;fill-opacity:1"
     transform="rotate(45 540 540)" />
  <text
     font-size="19"
     font-weight="700"
     fill="#10324f"
     id="text8"
     style="font-size:21.3333px;fill:#1d1d1b;fill-opacity:1"
     transform="rotate(45 540 540) translate(4.98132,-2.49066)"><textPath
       href="#tp_jpt"
       startOffset="50%"
       text-anchor="middle"
       id="textPath8">Ripple Down Rules</textPath></text>
  <text
     font-size="19"
     font-weight="700"
     fill="#10324f"
     id="text9"
     style="font-size:16px;fill:#1d1d1b;fill-opacity:1"
     transform="rotate(45,540.58579,548.24263)"><textPath
       href="#tp_jpt2"
       startOffset="50%"
       text-anchor="middle"
       id="textPath9"
       style="font-style:normal;font-variant:normal;font-weight:normal;font-stretch:normal;font-size:16px;font-family:'Roboto Condensed', 'Arial Narrow', sans-serif;-inkscape-font-specification:'Roboto Condensed, Arial Narrow, sans-serif';fill:#1d1d1b;fill-opacity:1">Rule Based Reasoning</textPath></text>
  <text
     font-size="19"
     font-weight="700"
     fill="#10324f"
     id="text10"
     style="font-size:21.3333px;fill:#1d1d1b;fill-opacity:1"
     transform="rotate(45 540 540)"><textPath
       href="#tp_rdr"
       startOffset="50%"
       text-anchor="middle"
       id="textPath10">Probabilistic Models</textPath></text>
  <text
     font-size="19"
     font-weight="700"
     fill="#10324f"
     id="text10-9"
     style="font-size:16px;fill:#1d1d1b;fill-opacity:1"
     transform="rotate(45 540 540) translate(19.06104,9.2856)"><textPath
       href="#tp_rdr-6"
       startOffset="50%"
       text-anchor="middle"
       id="textPath10-1"
       style="font-style:normal;font-variant:normal;font-weight:normal;font-stretch:normal;font-size:16px;font-family:'Roboto Condensed', 'Arial Narrow', sans-serif;-inkscape-font-specification:'Roboto Condensed, Arial Narrow, sans-serif';fill:#1d1d1b;fill-opacity:1">Reasoning Under Uncertainty</textPath></text>
  <text
     font-size="22"
     font-weight="700"
     fill="#10324f"
     id="text12"
     style="font-size:21.33333333px;fill:#1d1d1b;fill-opacity:1"
     transform="rotate(45 540 540)"><textPath
       href="#tp_neems"
       startOffset="50%"
       text-anchor="middle"
       id="textPath12">NEEMs</textPath></text>
  <text
     font-size="13.5"
     fill="#3d5a78"
     id="text13"
     style="font-size:16px;fill:#1d1d1b;fill-opacity:1"
     transform="rotate(45 540 540)"><textPath
       href="#tp_neems2"
       startOffset="50%"
       text-anchor="middle"
       id="textPath13"
       style="font-size:16px;fill:#1d1d1b;fill-opacity:1">Narrative Enabled Episodic Memories</textPath></text>
  <text
     font-size="21"
     font-weight="700"
     fill="#10324f"
     id="text14"
     style="font-size:21.3333px;fill:#1d1d1b;fill-opacity:1"
     transform="rotate(45,550.93172,519.62147)"><textPath
       href="#tp_cls"
       startOffset="50%"
       text-anchor="middle"
       id="textPath14">Class Diagrams</textPath></text>
  <text
     font-size="14"
     fill="#3d5a78"
     id="text15"
     style="font-size:16px;fill:#1d1d1b;fill-opacity:1"
     transform="rotate(45,529.06828,560.37853)"><textPath
       href="#tp_cls2"
       startOffset="50%"
       text-anchor="middle"
       id="textPath15"
       style="font-size:16px;fill:#1d1d1b;fill-opacity:1">ontology</textPath></text>
  <text
     font-size="20"
     font-weight="700"
     fill="#10324f"
     id="text16"
     style="font-size:21.33333333px;fill:#1d1d1b;fill-opacity:1"
     transform="rotate(45 540 540)"><textPath
       href="#tp_nl"
       startOffset="50%"
       text-anchor="middle"
       id="textPath16">Natural Language</textPath></text>
  <text
     font-size="22"
     font-weight="700"
     fill="#fdf4ec"
     id="text17"
     style="font-size:21.3333px;fill:#1d1d1b;fill-opacity:1"><textPath
       href="#tp_eql"
       startOffset="50%"
       text-anchor="middle"
       id="textPath17"
       style="fill:#1d1d1b;fill-opacity:1">Entity Query Language</textPath></text>
  <text
     font-size="10.5px"
     fill="#f3d9cd"
     id="text18"><textPath
       href="#tp_eql2"
       startOffset="50%"
       text-anchor="middle"
       id="textPath18" /></text>
  <!-- ===== COMPONENTS (three equal sectors: SemDT | SegMind | PyCRAM) ===== -->
  <!-- SemDT (left, 90..210) -->
  <path
     d="M646.57,779.35 A262.00,262.00 0 0 1 320.97,683.78 A15.00,15.00 0 0 1 305.97,657.79 A262.00,262.00 0 0 1 386.00,328.04 L400.11,347.45 A15.00,15.00 0 0 1 417.74,371.72 L431.85,391.14 A184.00,184.00 0 0 0 413.75,406.14 A15.00,15.00 0 0 1 393.68,428.44 A184.00,184.00 0 0 0 373.68,618.70 A15.00,15.00 0 0 1 388.68,644.68 A184.00,184.00 0 0 0 563.46,722.50 A15.00,15.00 0 0 1 592.80,716.26 A184.00,184.00 0 0 0 614.84,708.09 L624.60,730.02 A15.00,15.00 0 0 1 636.80,757.42 L646.57,779.35 Z"
     fill="#feda66"
     stroke="#163253"
     stroke-width="2.5"
     id="path18"
     style="fill:#af78ba;fill-opacity:1" />
  <text
     font-size="19"
     font-weight="700"
     fill="#1d1d1b"
     id="text19"
     style="font-size:21.33333333px"><textPath
       href="#tp_semdt1"
       startOffset="50%"
       text-anchor="middle"
       id="textPath19">Semantic Digital Twin</textPath></text>
  <text
     font-size="19"
     font-weight="700"
     fill="#1d1d1b"
     id="text19-5"
     style="font-size:16px"
     transform="translate(-17.22533,10.46431)"><textPath
       href="#tp_semdt1-6"
       startOffset="50%"
       text-anchor="middle"
       id="textPath19-3"
       style="font-style:normal;font-variant:normal;font-weight:normal;font-stretch:normal;font-size:16px;font-family:'Roboto Condensed', 'Arial Narrow', sans-serif;-inkscape-font-specification:'Roboto Condensed, Arial Narrow, sans-serif'">World Model</textPath></text>
  <!-- SegMind (top, 210..330, aligned under NEEMs) -->
  <path
     d="M386.00,328.04 A262.00,262.00 0 0 1 525.00,278.43 A15.00,15.00 0 0 1 555.00,278.43 A262.00,262.00 0 0 1 715.31,345.30 L699.25,363.13 A15.00,15.00 0 0 1 679.18,385.43 L663.12,403.26 A184.00,184.00 0 0 0 431.85,391.14 L417.74,371.72 A15.00,15.00 0 0 1 400.11,347.45 L386.00,328.04 Z"
     fill="#c49ccc"
     stroke="#163253"
     stroke-width="2.5"
     id="path19"
     style="fill:#af78ba;fill-opacity:1" />
  <text
     font-size="21"
     font-weight="700"
     fill="#143d22"
     id="text20"
     style="font-size:21.33333333px;fill:#1d1d1b;fill-opacity:1"><textPath
       href="#tp_segmind1"
       startOffset="50%"
       text-anchor="middle"
       id="textPath20">SegMind</textPath></text>
  <text
     font-size="12"
     fill="#2f5638"
     id="text21"
     style="font-size:16px;fill:#1d1d1b;fill-opacity:1"><textPath
       href="#tp_segmind2"
       startOffset="50%"
       text-anchor="middle"
       id="textPath21"
       style="font-size:16px;fill:#1d1d1b;fill-opacity:1">event / action segmentation</textPath></text>
  <!-- PyCRAM (right, 330..450) -->
  <path
     d="M715.31,345.30 A262.00,262.00 0 0 1 774.03,657.79 A15.00,15.00 0 0 1 759.03,683.78 A262.00,262.00 0 0 1 646.57,779.35 L636.80,757.42 A15.00,15.00 0 0 1 624.60,730.02 L614.84,708.09 A184.00,184.00 0 0 0 691.32,644.68 A15.00,15.00 0 0 1 706.32,618.70 A184.00,184.00 0 0 0 690.12,433.61 A15.00,15.00 0 0 1 670.84,410.63 A184.00,184.00 0 0 0 663.12,403.26 L679.18,385.43 A15.00,15.00 0 0 1 699.25,363.13 L715.31,345.30 Z"
     fill="#c49ccc"
     stroke="#163253"
     stroke-width="2.5"
     id="path21"
     style="fill:#af78ba;fill-opacity:1" />
  <text
     font-size="22px"
     font-weight="700"
     fill="#1d1d1b"
     id="text22"
     style="font-size:21.3333px"
     transform="translate(-14)"><textPath
       href="#tpB_pyc1"
       startOffset="50%"
       text-anchor="middle"
       id="textPath22">CoraPlex</textPath></text>
  <text
     font-size="14px"
     fill="#3d5a78"
     id="text23"
     transform="translate(18,4)"
     style="font-size:16px;fill:#1d1d1b;fill-opacity:1"><textPath
       href="#tpB_pyc2"
       startOffset="50%"
       text-anchor="middle"
       id="textPath23"
       style="font-size:16px;fill:#1d1d1b;fill-opacity:1">planning executive</textPath></text>
  <!-- nested ring: Multiverse (small, under SemDT) | RoboKudo (wide top, into PyCRAM & SemDT) | Giskard (bottom-middle, under PyCRAM & SemDT) -->
  <path
     d="M540.00,724.00 A184.00,184.00 0 0 1 388.68,644.68 A15.00,15.00 0 0 1 373.68,618.70 A184.00,184.00 0 0 1 380.65,448.00 L401.44,460.00 A15.00,15.00 0 0 1 427.42,475.00 L448.20,487.00 A106.00,106.00 0 0 0 540.00,646.00 L540.00,670.00 A15.00,15.00 0 0 1 540.00,700.00 L540.00,724.00 Z"
     fill="#feda66"
     stroke="#163253"
     stroke-width="2"
     id="path23" />
  <text
     font-size="17"
     font-weight="700"
     fill="#2e1d4d"
     id="text24"
     style="font-size:21.3333px;fill:#1d1d1b;fill-opacity:1"
     transform="translate(10)"><textPath
       href="#tp_mv1"
       startOffset="50%"
       text-anchor="middle"
       id="textPath24">Multiverse</textPath></text>
  <text
     font-size="10.5px"
     fill="#163253"
     id="text25"
     style="font-size:16px;fill:#1d1d1b;fill-opacity:1"
     transform="translate(-20,22)"><textPath
       href="#tp_mv2"
       startOffset="50%"
       text-anchor="middle"
       id="textPath25"
       style="font-size:16px;fill:#1d1d1b;fill-opacity:1">simulation Connector</textPath></text>
  <path
     d="M380.65,448.00 A184.00,184.00 0 0 1 393.68,428.44 A15.00,15.00 0 0 1 413.75,406.14 A184.00,184.00 0 0 1 670.84,410.63 A15.00,15.00 0 0 1 690.12,433.61 A184.00,184.00 0 0 1 699.35,448.00 L678.56,460.00 A15.00,15.00 0 0 1 652.58,475.00 L631.80,487.00 A106.00,106.00 0 0 0 448.20,487.00 L427.42,475.00 A15.00,15.00 0 0 1 401.44,460.00 L380.65,448.00 Z"
     fill="#4c9893"
     stroke="#163253"
     stroke-width="2"
     id="path25"
     style="fill:#feda66;fill-opacity:1" />
  <text
     font-size="18"
     font-weight="700"
     fill="#1d1d1b"
     id="text26"
     style="font-size:21.3333px"
     transform="translate(-2)"><textPath
       href="#tpB_robo1"
       startOffset="50%"
       text-anchor="middle"
       id="textPath26">        RoboKudo      </textPath></text>
  <text
     font-size="12.5px"
     fill="#3d5a78"
     id="text27"
     style="font-size:16px;fill:#1d1d1b;fill-opacity:1"><textPath
       href="#tpB_robo2"
       startOffset="50%"
       text-anchor="middle"
       id="textPath27"
       style="font-size:16px;fill:#1d1d1b;fill-opacity:1">           perception executive         </textPath></text>
  <path
     d="M699.35,448.00 A184.00,184.00 0 0 1 706.32,618.70 A15.00,15.00 0 0 1 691.32,644.68 A184.00,184.00 0 0 1 592.80,716.26 A15.00,15.00 0 0 1 563.46,722.50 A184.00,184.00 0 0 1 540.00,724.00 L540.00,700.00 A15.00,15.00 0 0 1 540.00,670.00 L540.00,646.00 A106.00,106.00 0 0 0 631.80,487.00 L652.58,475.00 A15.00,15.00 0 0 1 678.56,460.00 L699.35,448.00 Z"
     fill="#4c9893"
     stroke="#163253"
     stroke-width="2"
     id="path27"
     style="fill:#feda66;fill-opacity:1" />
  <text
     font-size="18"
     font-weight="700"
     fill="#1d1d1b"
     id="text28"
     style="font-size:21.3333px"
     transform="translate(-10)"><textPath
       href="#tpB_gis1"
       startOffset="50%"
       text-anchor="middle"
       id="textPath28">    Giskard        </textPath></text>
  <text
     font-size="12.5px"
     fill="#3d5a78"
     id="text29"
     style="font-size:16px;fill:#1d1d1b;fill-opacity:1"
     transform="translate(18,18)"><textPath
       href="#tpB_gis2"
       startOffset="50%"
       text-anchor="middle"
       id="textPath29"
       style="font-size:16px;fill:#1d1d1b;fill-opacity:1">           action executive           </textPath></text>
  <!-- ===== THREE-WAY CORE: World (faces SemDT) | Human (faces SegMind) | Robot (faces PyCRAM) ===== -->
  <!-- World wedge (left, faces SemDT) -->
  <path
     d="M540,540 L539.04,631.99 A92,92 0 0 1 459.85,494.84 Z"
     fill="#fcf3e2"
     stroke="#163253"
     stroke-width="2.5"
     id="path29" />
  <!-- World globe glyph -->
  <g
     stroke="#163253"
     stroke-width="1.5"
     fill="#a7d8b5"
     stroke-linejoin="round"
     id="g_world"
     transform="matrix(1.3331929,0,0,1.3331929,-166.75976,-183.17941)">
    <circle
       cx="500"
       cy="560"
       r="8.5"
       id="world_globe" />
    <path
       d="m 491.5,560 a 8.5,8.5 0 0 0 17,0"
       fill="none"
       stroke-width="1.05"
       id="path1" />
    <ellipse
       cx="500"
       cy="560"
       rx="3.5699999"
       ry="8.5"
       fill="none"
       stroke-width="1.05"
       id="ellipse1" />
    <line
       x1="500"
       y1="551.5"
       x2="500"
       y2="568.5"
       stroke-width="1.05"
       id="line1" />
    <line
       x1="492.5"
       y1="556.20001"
       x2="507.5"
       y2="556.20001"
       stroke-width="1"
       id="line2" />
    <line
       x1="492.5"
       y1="563.79999"
       x2="507.5"
       y2="563.79999"
       stroke-width="1"
       id="line3" />
  </g>
  <text
     x="498.75467"
     y="591.69867"
     font-size="9"
     font-weight="700"
     fill="#163253"
     text-anchor="middle"
     id="text30"
     style="font-size:16px;fill:#1d1d1b;fill-opacity:1">World</text>
  <!-- Human wedge (top, faces SegMind) -->
  <path
     d="M540,540 L460.81,493.17 A92,92 0 0 1 619.19,493.17 Z"
     fill="#fcf3e2"
     stroke="#163253"
     stroke-width="2.5"
     id="path30" />
  <g
     stroke="#163253"
     stroke-width="1.6"
     fill="#feda66"
     id="g31"
     transform="translate(2,-13.69863)">
    <circle
       cx="540"
       cy="486"
       r="8"
       id="circle30" />
    <path
       d="m 528,512 a 12,14 0 0 1 24,0 z"
       fill="#feda66"
       id="path31" />
  </g>
  <text
     x="541.37732"
     y="518.03735"
     font-size="9"
     font-weight="700"
     fill="#163253"
     text-anchor="middle"
     id="text31"
     style="font-size:16px;fill:#1d1d1b;fill-opacity:1">Human</text>
  <!-- Robot wedge (right, faces PyCRAM) -->
  <path
     d="M540,540 L620.15,494.84 A92,92 0 0 1 540.96,631.99 Z"
     fill="#fcf3e2"
     stroke="#163253"
     stroke-width="2.5"
     id="path32" />
  <g
     stroke="#163253"
     stroke-width="1.5"
     fill="#dbeaf9"
     stroke-linejoin="round"
     id="g33"
     transform="translate(2,-2)">
    <rect
       x="566"
       y="556"
       width="26"
       height="20"
       rx="4"
       id="rect32" />
    <circle
       cx="573"
       cy="566"
       r="2.2"
       fill="#163253"
       stroke="none"
       id="circle32" />
    <circle
       cx="585"
       cy="566"
       r="2.2"
       fill="#163253"
       stroke="none"
       id="circle33" />
    <line
       x1="579"
       y1="548"
       x2="579"
       y2="556"
       id="line33" />
  </g>
  <text
     x="581"
     y="592"
     font-size="8.5"
     font-weight="700"
     fill="#3d5a78"
     text-anchor="middle"
     id="text33"
     style="font-size:16px;fill:#1d1d1b;fill-opacity:1">Robot</text>
  <!-- ===== READING GUIDE ===== -->
  <!-- ===== LEGEND (top-right) ===== -->
  <g
     font-family="'Roboto Condensed','Arial Narrow',sans-serif"
     id="g47">
    <rect
       x="893.7428"
       y="47.47876"
       width="271.98645"
       height="196.88899"
       rx="10.793111"
       fill="#fbfcfd"
       stroke="#cddcea"
       stroke-width="1.23886"
       id="rect33" />
    <text
       x="904"
       y="74"
       font-size="13"
       font-weight="700"
       fill="#34302a"
       letter-spacing="0.5"
       id="text34"
       style="font-size:18.6667px;fill:#1d1d1b;fill-opacity:1">Subsystems</text>
    <g
       id="g36"
       transform="translate(-12)">
      <rect
         x="916"
         y="84"
         width="18"
         height="18"
         rx="4"
         fill="#a1c8ed"
         stroke="#163253"
         stroke-width="1.3"
         id="rect34"
         style="fill:#95c0ea;fill-opacity:1" />
      <text
         x="942"
         y="94"
         font-size="11.5px"
         font-weight="700"
         fill="#22303c"
         id="text35"
         style="font-size:16px;fill:#1d1d1b;fill-opacity:1">KnowRob 3.0 - Reasoning &amp; Memory</text>
      <text
         x="942"
         y="106"
         font-size="9"
         fill="#5a6b78"
         id="text36"
         style="font-size:12px" />
    </g>
    <g
       id="g38"
       transform="translate(-12.75467)">
      <rect
         x="916"
         y="114"
         width="18"
         height="18"
         rx="4"
         fill="#9f472f"
         stroke="#163253"
         stroke-width="1.3"
         id="rect36"
         style="fill:#2f699f;fill-opacity:1" />
      <text
         x="942"
         y="124"
         font-size="11.5px"
         font-weight="700"
         fill="#22303c"
         id="text37"
         style="font-size:16px;fill:#1d1d1b;fill-opacity:1">KnowRob 3.0 - Querying</text>
      <text
         x="942"
         y="136"
         font-size="9px"
         fill="#5a6b78"
         id="text38"
         style="font-size:12px" />
    </g>
    <g
       id="g40"
       transform="translate(-12)">
      <rect
         x="916"
         y="144"
         width="18"
         height="18"
         rx="4"
         fill="#4c9893"
         stroke="#163253"
         stroke-width="1.3"
         id="rect38"
         style="fill:#af78ba;fill-opacity:1" />
      <text
         x="942"
         y="154"
         font-size="11.5"
         font-weight="700"
         fill="#22303c"
         id="text39"
         style="font-size:16px;fill:#1d1d1b;fill-opacity:1">Knowledge Representation</text>
      <text
         x="942"
         y="166"
         font-size="9"
         fill="#5a6b78"
         id="text40"
         style="font-size:12px" />
    </g>
    <g
       id="g44"
       transform="translate(-12,-24)">
      <rect
         x="916"
         y="204"
         width="18"
         height="18"
         rx="4"
         fill="#feda66"
         stroke="#163253"
         stroke-width="1.3"
         id="rect42"
         style="fill:#feda66;fill-opacity:1" />
      <text
         x="942"
         y="214"
         font-size="11.5"
         font-weight="700"
         fill="#22303c"
         id="text43"
         style="font-size:16px;fill:#1d1d1b;fill-opacity:1">World Interaction</text>
      <text
         x="942"
         y="226"
         font-size="9"
         fill="#5a6b78"
         id="text44"
         style="font-size:12px" />
    </g>
    <g
       id="g46"
       transform="translate(-12,-20)">
      <rect
         x="916"
         y="234"
         width="18"
         height="18"
         rx="4"
         fill="#fcf3e2"
         stroke="#163253"
         stroke-width="1.3"
         id="rect44" />
      <text
         x="942"
         y="244"
         font-size="11.5"
         font-weight="700"
         fill="#22303c"
         id="text45"
         style="font-size:16px;fill:#1d1d1b;fill-opacity:1">Real World</text>
      <text
         x="942"
         y="256"
         font-size="9"
         fill="#5a6b78"
         id="text46"
         style="font-size:12px" />
    </g>
  </g>
</svg>
